<?xml version="1.0" encoding="UTF-8" standalone="no"?>
<svg
   xmlns:dc="http://purl.org/dc/elements/1.1/"
   xmlns:cc="http://creativecommons.org/ns#"
   xmlns:rdf="http://www.w3.org/1999/02/22-rdf-syntax-ns#"
   xmlns:svg="http://www.w3.org/2000/svg"
   xmlns="http://www.w3.org/2000/svg"
   xmlns:sodipodi="http://sodipodi.sourceforge.net/DTD/sodipodi-0.dtd"
   xmlns:inkscape="http://www.inkscape.org/namespaces/inkscape"
   id="svg8018"
   viewBox="0 0 128 75"
   version="1.1"
   inkscape:version="0.48.4 r9939"
   width="100%"
   height="100%"
   sodipodi:docname="bike-sharing.svg"
   inkscape:export-filename="/home/philipp/Programmierung/Studium/Praktikum-SOA/doc/presentation/pics/bike-sharing.png"
   inkscape:export-xdpi="480"
   inkscape:export-ydpi="480">
  <defs
     id="defs3061" />
  <sodipodi:namedview
     pagecolor="#ffffff"
     bordercolor="#666666"
     borderopacity="1"
     objecttolerance="10"
     gridtolerance="10"
     guidetolerance="10"
     inkscape:pageopacity="0"
     inkscape:pageshadow="2"
     inkscape:window-width="1676"
     inkscape:window-height="1027"
     id="namedview3059"
     showgrid="false"
     inkscape:snap-bbox="false"
     inkscape:object-paths="true"
     inkscape:zoom="8"
     inkscape:cx="41.925755"
     inkscape:cy="28.833609"
     inkscape:window-x="0"
     inkscape:window-y="19"
     inkscape:window-maximized="1"
     inkscape:current-layer="svg8018" />
  <title
     id="title8053">Bicycle Pictogram</title>
  <g
     id="layer1"
     transform="matrix(0.32341649,0,0,0.32701762,-51.259124,-113.81073)">
    <g
       id="g7985"
       transform="translate(-1094.7,-1488.4)"
       style="stroke:#000000;stroke-linecap:round;stroke-linejoin:round">
      <path
         id="path6669"
         d="m 1687.5,2084.7 c 0,96.65 -78.35,175 -175,175 -96.65,0 -175,-78.35 -175,-175 0,-96.65 78.35,-175 175,-175 96.65,0 175,78.35 175,175 z"
         transform="matrix(0.13154,0,0,0.12871,1192,1658.7)"
         inkscape:connector-curvature="0"
         style="fill:none;stroke-width:46.11100006" />
      <path
         id="path7466"
         d="m 1415.3,1880.3 -24.345,47.122"
         inkscape:connector-curvature="0"
         style="fill:none;stroke-width:5" />
      <path
         id="path7472"
         d="m 1347.4,1906.4 c 0,2.606 -2.1126,4.7186 -4.7186,4.7186 -2.606,0 -4.7186,-2.1126 -4.7186,-4.7186 0,-2.606 2.1126,-4.7186 4.7186,-4.7186 2.606,0 4.7186,2.1126 4.7186,4.7186 z"
         transform="matrix(0.4374,0,0,0.428,803.67,1111.1)"
         inkscape:connector-curvature="0"
         style="stroke-width:13.86699963" />
      <path
         id="path7492-4"
         d="m 1409.3,1895.6 c 22.019,31.108 22.206,31.372 22.206,31.372"
         inkscape:connector-curvature="0"
         style="fill:none;stroke-width:5" />
      <path
         id="path7620"
         d="m 1415.6,1880.1 h 9.7025"
         inkscape:connector-curvature="0"
         style="fill:none;stroke-width:5" />
      <path
         id="path6669-1"
         d="m 1687.5,2084.7 c 0,96.65 -78.35,175 -175,175 -96.65,0 -175,-78.35 -175,-175 0,-96.65 78.35,-175 175,-175 96.65,0 175,78.35 175,175 z"
         transform="matrix(0.13154,0,0,0.12871,1268,1658.7)"
         inkscape:connector-curvature="0"
         style="fill:none;stroke-width:46.11100006" />
      <path
         id="path7492-0"
         d="m 1431.3,1926.6 9.2624,-32.509"
         inkscape:connector-curvature="0"
         style="fill:none;stroke-width:5" />
      <path
         id="path7470-4"
         d="m 1433.5,1894.8 5.5855,-1.2069 8.1167,-0.1956"
         inkscape:connector-curvature="0"
         style="fill:none;stroke-width:6" />
      <path
         id="path7620-4"
         d="m 1431.8,1927 h 35.918"
         inkscape:connector-curvature="0"
         style="fill:none;stroke-width:5" />
      <path
         id="path7472-5"
         d="m 1347.4,1906.4 c 0,2.606 -2.1126,4.7186 -4.7186,4.7186 -2.606,0 -4.7186,-2.1126 -4.7186,-4.7186 0,-2.606 2.1126,-4.7186 4.7186,-4.7186 2.606,0 4.7186,2.1126 4.7186,4.7186 z"
         transform="matrix(0.4374,0,0,0.428,879.63,1111.1)"
         inkscape:connector-curvature="0"
         style="stroke-width:13.86699963" />
    </g>
  </g>
  <metadata
     id="metadata3057">
    <rdf:RDF>
      <cc:Work>
        <dc:format>image/svg+xml</dc:format>
        <dc:type
           rdf:resource="http://purl.org/dc/dcmitype/StillImage" />
        <cc:license
           rdf:resource="http://creativecommons.org/licenses/publicdomain/" />
        <dc:publisher>
          <cc:Agent
             rdf:about="http://openclipart.org/">
            <dc:title>Openclipart</dc:title>
          </cc:Agent>
        </dc:publisher>
        <dc:title>Bicycle Pictogram</dc:title>
      </cc:Work>
      <cc:License
         rdf:about="http://creativecommons.org/licenses/publicdomain/">
        <cc:permits
           rdf:resource="http://creativecommons.org/ns#Reproduction" />
        <cc:permits
           rdf:resource="http://creativecommons.org/ns#Distribution" />
        <cc:permits
           rdf:resource="http://creativecommons.org/ns#DerivativeWorks" />
      </cc:License>
    </rdf:RDF>
  </metadata>
  <path
     style="fill:#000000;fill-opacity:1"
     d="m 56.898883,4.639345 c -13.079076,0 -23.6875,10.613978 -23.6875,23.71875 0,13.104772 10.608424,23.71875 23.6875,23.71875 13.079076,0 23.6875,-10.613978 23.6875,-23.71875 0,-13.104772 -10.608424,-23.71875 -23.6875,-23.71875 z m -0.03125,2.40625 c 11.717208,0 21.1875,9.591814 21.1875,21.4375 0,11.845686 -9.470292,21.46875 -21.1875,21.46875 -11.717208,0 -21.21875,-9.623064 -21.21875,-21.46875 0,-11.845686 9.501542,-21.4375 21.21875,-21.4375 z"
     id="path3063"
     inkscape:connector-curvature="0" />
  <path
     style="fill:#000000;fill-opacity:1"
     d="m 16.28125,2.53125 c -6.321125,0 -11.4375,5.026103 -11.4375,11.21875 0,6.192647 5.116375,11.21875 11.4375,11.21875 6.321125,0 11.4375,-5.026103 11.4375,-11.21875 0,-6.192647 -5.116375,-11.21875 -11.4375,-11.21875 z M 16.25,4.25 c 5.471164,0 9.91787,4.256364 9.9375,9.53125 l 0,0.03125 c 0,5.288332 -4.452425,9.59375 -9.9375,9.59375 -5.485075,0 -9.9375,-4.305418 -9.9375,-9.59375 0,-5.288332 4.452425,-9.5625 9.9375,-9.5625 z"
     id="path3072"
     inkscape:connector-curvature="0" />
  <path
     style="fill:#000000;fill-opacity:1"
     d="m 42.25,51.65625 c -6.321125,0 -11.4375,5.026103 -11.4375,11.21875 0,6.192647 5.116375,11.21875 11.4375,11.21875 6.321125,0 11.4375,-5.026103 11.4375,-11.21875 0,-6.192647 -5.116375,-11.21875 -11.4375,-11.21875 z M 42.21875,53.375 c 5.471164,0 9.91787,4.256364 9.9375,9.53125 l 0,0.03125 c 0,5.288332 -4.452425,9.59375 -9.9375,9.59375 -5.485075,0 -9.9375,-4.305418 -9.9375,-9.59375 0,-5.288332 4.452425,-9.5625 9.9375,-9.5625 z"
     id="path3072-5"
     inkscape:connector-curvature="0" />
  <path
     style="fill:#000000;fill-opacity:1"
     d="m 87.75,48.28125 c -6.32113,0 -11.4375,5.026103 -11.4375,11.21875 0,6.192647 5.11637,11.21875 11.4375,11.21875 6.32112,0 11.4375,-5.026103 11.4375,-11.21875 0,-6.192647 -5.11638,-11.21875 -11.4375,-11.21875 z M 87.7188,50 c 5.47116,0 9.91787,4.256364 9.9375,9.53125 l 0,0.03125 c 0,5.288332 -4.45243,9.59375 -9.9375,9.59375 -5.48508,0 -9.9375,-4.305418 -9.9375,-9.59375 0,-5.288332 4.45242,-9.5625 9.9375,-9.5625 z"
     id="path3072-2"
     inkscape:connector-curvature="0" />
  <path
     style="fill:#000000;fill-opacity:1"
     d="m 113.125,28.40625 c -6.32113,0 -11.4375,5.026103 -11.4375,11.21875 0,6.192647 5.11637,11.21875 11.4375,11.21875 6.32112,0 11.4375,-5.026103 11.4375,-11.21875 0,-6.192647 -5.11638,-11.21875 -11.4375,-11.21875 z m -0.0312,1.71875 c 5.47116,0 9.91787,4.256364 9.9375,9.53125 l 0,0.03125 c 0,5.288332 -4.45243,9.59375 -9.9375,9.59375 -5.48508,0 -9.9375,-4.305418 -9.9375,-9.59375 0,-5.288332 4.45242,-9.5625 9.9375,-9.5625 z"
     id="path3072-9"
     inkscape:connector-curvature="0" />
  <path
     style="fill:#000000;fill-opacity:1"
     d="m 95.125,3.1562501 c -6.32113,0 -11.4375,5.0261029 -11.4375,11.2187499 0,6.192647 5.11637,11.21875 11.4375,11.21875 6.32112,0 11.4375,-5.026103 11.4375,-11.21875 0,-6.192647 -5.11638,-11.2187499 -11.4375,-11.2187499 z M 95.09375,4.875 c 5.47116,0 9.91787,4.256364 9.9375,9.53125 l 0,0.03125 c 0,5.288332 -4.45243,9.59375 -9.9375,9.59375 -5.48508,0 -9.9375,-4.305418 -9.9375,-9.59375 0,-5.288332 4.45242,-9.5625 9.9375,-9.5625 z"
     id="path3072-8"
     inkscape:connector-curvature="0" />
  <path
     style="fill:#000000;fill-opacity:1"
     d="m 15.375,37.40625 c -6.321125,0 -11.4375,5.026103 -11.4375,11.21875 0,6.192647 5.116375,11.21875 11.4375,11.21875 6.321125,0 11.4375,-5.026103 11.4375,-11.21875 0,-6.192647 -5.116375,-11.21875 -11.4375,-11.21875 z M 15.34375,39.125 c 5.471164,0 9.91787,4.256364 9.9375,9.53125 l 0,0.03125 c 0,5.288332 -4.452425,9.59375 -9.9375,9.59375 -5.485075,0 -9.9375,-4.305418 -9.9375,-9.59375 0,-5.288332 4.452425,-9.5625 9.9375,-9.5625 z"
     id="path3072-97"
     inkscape:connector-curvature="0" />
  <path
     style="fill:none;stroke:#000000;stroke-width:1px;stroke-linecap:butt;stroke-linejoin:miter;stroke-opacity:1"
     d="m 26.819639,14.198425 c 2.047416,3.110641 4.325898,5.855425 10.298712,2.750852"
     id="path3916"
     inkscape:connector-type="polyline"
     inkscape:connector-curvature="0"
     sodipodi:nodetypes="cc" />
  <path
     style="fill:none;stroke:#000000;stroke-width:1px;stroke-linecap:butt;stroke-linejoin:miter;stroke-opacity:1"
     d="m 24.786458,42.742723 c 4.06263,1.811435 7.987274,-0.102784 11.716797,-7.28524"
     id="path3918"
     inkscape:connector-type="polyline"
     inkscape:connector-curvature="0"
     sodipodi:nodetypes="cc" />
  <path
     style="fill:none;stroke:#000000;stroke-width:1px;stroke-linecap:butt;stroke-linejoin:miter;stroke-opacity:1"
     d="m 51.693575,56.543741 c 3.884574,-2.396995 13.421048,-0.710714 11.100862,-7.442354"
     id="path3920"
     inkscape:connector-type="polyline"
     inkscape:connector-curvature="0"
     inkscape:connection-start="#path3072-5"
     inkscape:connection-start-point="d4"
     sodipodi:nodetypes="cc" />
  <path
     style="fill:none;stroke:#000000;stroke-width:1px;stroke-linecap:butt;stroke-linejoin:miter;stroke-opacity:1"
     d="M 81.264152,50.257782 C 79.038605,44.748525 76.908879,43.25323 73.867983,41.299692"
     id="path3922"
     inkscape:connector-type="polyline"
     inkscape:connector-curvature="0"
     inkscape:connection-start="#path3072-2"
     inkscape:connection-start-point="d4"
     sodipodi:nodetypes="cc" />
  <path
     style="fill:none;stroke:#000000;stroke-width:0.99856949px;stroke-linecap:butt;stroke-linejoin:miter;stroke-opacity:1"
     d="M 102.805,37.326024 C 93.31967,47.537402 94.502655,27.955707 78.714654,32.328446"
     id="path3924"
     inkscape:connector-type="polyline"
     inkscape:connector-curvature="0"
     sodipodi:nodetypes="cc" />
  <path
     style="fill:none;stroke:#000000;stroke-width:1.01612473px;stroke-linecap:butt;stroke-linejoin:miter;stroke-opacity:1"
     d="M 86.381982,7.1318487 C 80.612727,2.1874505 75.489095,1.2090202 72.042324,10.53131"
     id="path3926"
     inkscape:connector-type="polyline"
     inkscape:connector-curvature="0"
     sodipodi:nodetypes="cc" />
</svg>
